<?xml version="1.0" encoding="UTF-8" standalone="no"?>
<svg width="135px" height="20px" viewBox="0 0 135 20" version="1.1" xmlns="http://www.w3.org/2000/svg" xmlns:xlink="http://www.w3.org/1999/xlink">
    <!-- Generator: Sketch 41.2 (35397) - http://www.bohemiancoding.com/sketch -->
    <title>Logo</title>
    <desc>Created with Sketch.</desc>
    <defs></defs>
    <g id="Page-1" stroke="none" stroke-width="1" fill="none" fill-rule="evenodd">
        <g id="Desktop" transform="translate(-756.000000, -272.000000)">
            <g id="Logo" transform="translate(756.000000, 272.000000)">
                <g id="Icon" fill="#BBBBBB">
                    <path d="M9.18518519,4.48148148 C8.51851852,4.48148148 8,5.03703704 8,5.66666667 L8,10 L8,10.0740741 L8,10.2222222 C8,10.2592593 8,10.2962963 8.03703704,10.3333333 C8.03703704,10.3703704 8.07407407,10.4074074 8.07407407,10.4444444 C8.07407407,10.4814815 8.11111111,10.5185185 8.11111111,10.5555556 C8.11111111,10.5925926 8.11111111,10.5925926 8.14814815,10.6296296 L10.2962963,14.3703704 C10.5185185,14.7407407 10.9259259,14.962963 11.3333333,14.962963 C11.5185185,14.962963 11.7407407,14.9259259 11.9259259,14.8148148 C12.5185185,14.4814815 12.7037037,13.7407407 12.3703704,13.1851852 L10.3703704,9.7037037 L10.3703704,5.66666667 C10.3703704,5 9.85185185,4.48148148 9.18518519,4.48148148 Z" id="Shape" transform="translate(10.267490, 9.722222) scale(-1, 1) translate(-10.267490, -9.722222) "></path>
                    <path d="M33.8148148,0.148148148 L10.1851852,0.148148148 L10.1851852,0.148148148 C7.55555556,0.148148148 5.07407407,1.18518519 3.22222222,3.03703704 C1.37037037,4.88888889 0.333333333,7.37037037 0.333333333,10 C0.333333333,12.6296296 1.37037037,15.1111111 3.22222222,16.962963 C5.14814815,18.8888889 7.66666667,19.8518519 10.1851852,19.8518519 C12.7037037,19.8518519 15.2222222,18.8888889 17.1481481,16.962963 C17.5925926,16.5185185 18,16.037037 18.3333333,15.5185185 L21,15.5185185 C21.6666667,15.5185185 22.1851852,14.962963 22.1851852,14.3333333 C22.1851852,13.6666667 21.6296296,13.1481481 21,13.1481481 L17.6666667,13.1481481 L17.6296296,13.1481481 L17.5185185,13.1481481 C17.4814815,13.1481481 17.4444444,13.1481481 17.3703704,13.1851852 C17.3333333,13.1851852 17.3333333,13.1851852 17.2962963,13.2222222 C17.2592593,13.2222222 17.1851852,13.2592593 17.1481481,13.2592593 C17.1111111,13.2592593 17.1111111,13.2962963 17.0740741,13.2962963 C17.037037,13.3333333 17,13.3333333 16.962963,13.3703704 C16.9259259,13.3703704 16.9259259,13.4074074 16.8888889,13.4074074 C16.8518519,13.4444444 16.8148148,13.4814815 16.7777778,13.5185185 C16.7777778,13.5185185 16.7407407,13.5555556 16.7407407,13.5925926 C16.7037037,13.6296296 16.6666667,13.6666667 16.6296296,13.7407407 C16.6296296,13.7407407 16.6296296,13.7407407 16.6296296,13.7777778 C16.2962963,14.3333333 15.8888889,14.8518519 15.4444444,15.3333333 C12.5555556,18.2222222 7.81481481,18.2222222 4.92592593,15.3333333 C3.51851852,13.9259259 2.74074074,12.0740741 2.74074074,10.0740741 C2.74074074,8.07407407 3.51851852,6.22222222 4.92592593,4.81481481 C6.33333333,3.40740741 8.18518519,2.62962963 10.1851852,2.62962963 L33.8148148,2.62962963 C34.4814815,2.62962963 35,2.07407407 35,1.44444444 C35,0.814814815 34.4444444,0.148148148 33.8148148,0.148148148 Z" id="Shape"></path>
                    <path d="M31.6296296,4.48148148 L21,4.48148148 C20.3333333,4.48148148 19.8148148,5.03703704 19.8148148,5.66666667 C19.8148148,6.2962963 20.3703704,6.85185185 21,6.85185185 L31.6296296,6.85185185 C32.2962963,6.85185185 32.8148148,6.2962963 32.8148148,5.66666667 C32.8148148,5.03703704 32.2962963,4.48148148 31.6296296,4.48148148 Z" id="Shape"></path>
                    <path d="M27.2962963,8.81481481 L18.8148148,8.81481481 C18.1481481,8.81481481 17.6296296,9.37037037 17.6296296,10 C17.6296296,10.6666667 18.1851852,11.1851852 18.8148148,11.1851852 L27.2962963,11.1851852 C27.962963,11.1851852 28.4814815,10.6296296 28.4814815,10 C28.5185185,9.33333333 27.962963,8.81481481 27.2962963,8.81481481 Z" id="Shape"></path>
                </g>
                <path d="M54.465,5.098 L54.419,5.098 L51.843,16 L48.531,16 L44.506,0.36 L47.818,0.36 L50.256,11.86 L50.302,11.86 L52.763,0.36 L56.121,0.36 L58.674,11.86 L58.72,11.86 L60.997,0.36 L64.286,0.36 L60.307,16 L56.995,16 L54.465,5.098 Z M76.2,9.491 L69.461,9.491 L69.461,16 L66.333,16 L66.333,0.36 L69.461,0.36 L69.461,6.708 L76.2,6.708 L76.2,0.36 L79.305,0.36 L79.305,16 L76.2,16 L76.2,9.491 Z M82.617,0.36 L85.722,0.36 L85.722,16 L82.617,16 L82.617,0.36 Z M96.9,4.477 C96.8539998,3.92499724 96.635502,3.48416831 96.2445,3.1545 C95.853498,2.82483168 95.2516707,2.66 94.439,2.66 C93.7029963,2.66 93.1088356,2.80949851 92.6565,3.1085 C92.2041644,3.4075015 91.978,3.8636636 91.978,4.477 C91.978,4.7836682 92.0354994,5.04816555 92.1505,5.2705 C92.2655006,5.49283444 92.4456654,5.6844992 92.691,5.8455 C92.9363346,6.0065008 93.254498,6.15599931 93.6455,6.294 C94.036502,6.43200069 94.5156638,6.5776659 95.083,6.731 C95.8343371,6.93033433 96.5166636,7.15266544 97.13,7.398 C97.7433364,7.64333456 98.2684978,7.94616487 98.7055,8.3065 C99.1425022,8.66683513 99.4836654,9.09999747 99.729,9.606 C99.9743346,10.1120025 100.097,10.7176631 100.097,11.423 C100.097,12.1590037 99.9590014,12.8298303 99.683,13.4355 C99.4069986,14.0411697 99.0121692,14.5548312 98.4985,14.9765 C97.9848308,15.3981688 97.3561704,15.7239988 96.6125,15.954 C95.8688296,16.1840011 95.029338,16.299 94.094,16.299 C92.9899945,16.299 92.0700037,16.1648347 91.334,15.8965 C90.5979963,15.6281653 90.0000023,15.2678356 89.54,14.8155 C89.0799977,14.3631644 88.7388344,13.8418363 88.5165,13.2515 C88.2941656,12.6611637 88.1600002,12.0516698 88.114,11.423 L91.219,11.331 C91.295667,12.189671 91.5869975,12.787665 92.093,13.125 C92.5990025,13.462335 93.2659959,13.631 94.094,13.631 C94.9833378,13.631 95.6809975,13.4891681 96.187,13.2055 C96.6930025,12.9218319 96.946,12.4350035 96.946,11.745 C96.946,11.1163302 96.6585029,10.6448349 96.0835,10.3305 C95.5084971,10.0161651 94.6613389,9.7056682 93.542,9.399 C92.7599961,9.18433226 92.070003,8.95050127 91.472,8.6975 C90.873997,8.44449874 90.3756687,8.14550172 89.977,7.8005 C89.5783313,7.45549828 89.2793343,7.04916901 89.08,6.5815 C88.8806657,6.113831 88.781,5.54267004 88.781,4.868 C88.781,4.22399678 88.9074987,3.61450287 89.1605,3.0395 C89.4135013,2.46449712 89.7814976,1.95466889 90.2645,1.51 C90.7475024,1.06533111 91.3493297,0.71266797 92.07,0.452 C92.7906703,0.19133203 93.6109954,0.061 94.531,0.061 C95.466338,0.061 96.2789965,0.17599885 96.969,0.406 C97.6590034,0.63600115 98.2301644,0.946498045 98.6825,1.3375 C99.1348356,1.72850196 99.4721656,2.18466406 99.6945,2.706 C99.9168344,3.22733594 100.028,3.77933042 100.028,4.362 L96.9,4.477 Z M105.042,3.143 L100.925,3.143 L100.925,0.36 L112.287,0.36 L112.287,3.143 L108.17,3.143 L108.17,16 L105.042,16 L105.042,3.143 Z M114.173,0.36 L117.301,0.36 L117.301,13.079 L123.304,13.079 L123.304,16 L114.173,16 L114.173,0.36 Z M125.42,0.36 L134.896,0.36 L134.896,3.143 L128.548,3.143 L128.548,6.708 L134.712,6.708 L134.712,9.491 L128.548,9.491 L128.548,13.217 L134.896,13.217 L134.896,16 L125.42,16 L125.42,0.36 Z" id="WHISTLE" fill="#1829FB"></path>
            </g>
        </g>
    </g>
</svg>